<svg xmlns="http://www.w3.org/2000/svg" width="600" height="400" viewBox="0 0 600 400"><rect width="100%" height="100%" fill="#DDDDDD"/><path fill="#999999" d="M160.45 172.98h9v54.95h-5.24q-1.22 0-2.03-.4-.82-.4-1.58-1.35l-28.69-36.63q.23 2.51.23 4.64v33.74h-9.01v-54.95h5.36q.64 0 1.12.06.47.06.84.23.36.17.7.49t.76.86l28.8 36.78q-.11-1.33-.19-2.62-.07-1.29-.07-2.4zm37.01 15.35q4.33 0 7.88 1.41 3.56 1.41 6.08 3.99 2.53 2.58 3.9 6.31 1.37 3.72 1.37 8.32 0 4.64-1.37 8.36t-3.9 6.35q-2.52 2.62-6.08 4.02-3.55 1.41-7.88 1.41-4.37 0-7.94-1.41-3.58-1.4-6.1-4.02-2.53-2.63-3.92-6.35-1.38-3.72-1.38-8.36 0-4.6 1.38-8.32 1.39-3.73 3.92-6.31 2.52-2.58 6.1-3.99 3.57-1.41 7.94-1.41m0 32.95q4.86 0 7.2-3.27t2.34-9.57q0-6.31-2.34-9.62-2.34-3.3-7.2-3.3-4.94 0-7.32 3.32-2.37 3.33-2.37 9.6t2.37 9.55q2.38 3.29 7.32 3.29m39.4 7.26q-5.09 0-7.8-2.87-2.72-2.87-2.72-7.92v-21.78h-3.99q-.76 0-1.29-.49-.54-.5-.54-1.48v-3.73l6.27-1.02 1.98-10.64q.19-.76.72-1.18t1.37-.42h4.86v12.27h10.42v6.69h-10.42v21.13q0 1.82.9 2.85.89 1.03 2.45 1.03.87 0 1.46-.21t1.03-.44q.43-.23.78-.44.34-.21.68-.21.42 0 .68.21.27.21.57.63l2.82 4.56q-2.06 1.71-4.72 2.58-2.66.88-5.51.88m69.89-47.43h-24.4v16.27h20.6v8.17h-20.6v22.38h-10.26v-54.95h34.66zm24.13 7.22q4.33 0 7.88 1.41t6.08 3.99 3.9 6.31q1.36 3.72 1.36 8.32 0 4.64-1.36 8.36-1.37 3.72-3.9 6.35-2.53 2.62-6.08 4.02-3.55 1.41-7.88 1.41-4.37 0-7.95-1.41-3.57-1.4-6.09-4.02-2.53-2.63-3.92-6.35t-1.39-8.36q0-4.6 1.39-8.32 1.39-3.73 3.92-6.31 2.52-2.58 6.09-3.99 3.58-1.41 7.95-1.41m0 32.95q4.86 0 7.2-3.27 2.33-3.27 2.33-9.57 0-6.31-2.33-9.62-2.34-3.3-7.2-3.3-4.94 0-7.32 3.32-2.37 3.33-2.37 9.6t2.37 9.55q2.38 3.29 7.32 3.29m50.61-32.34h9.39v38.99h-5.74q-1.86 0-2.36-1.71l-.64-3.12q-2.4 2.44-5.28 3.94-2.89 1.5-6.81 1.5-3.19 0-5.64-1.08-2.45-1.09-4.12-3.06-1.67-1.98-2.53-4.7-.85-2.71-.85-5.98v-24.78h9.38v24.78q0 3.57 1.66 5.53 1.65 1.95 4.95 1.95 2.44 0 4.56-1.08 2.13-1.08 4.03-2.98zm26.79 1.71.65 3.08q1.18-1.18 2.49-2.18 1.31-1.01 2.77-1.71 1.46-.71 3.14-1.11 1.67-.4 3.64-.4 3.2 0 5.67 1.09 2.47 1.08 4.12 3.04 1.65 1.95 2.51 4.67.85 2.72.85 5.99v24.81h-9.38v-24.81q0-3.58-1.64-5.53-1.63-1.96-4.98-1.96-2.43 0-4.56 1.1-2.12 1.1-4.02 3v28.2h-9.39v-38.99h5.74q1.82 0 2.39 1.71m59.21 25.73V198.9q-1.6-1.94-3.48-2.74t-4.05-.8q-2.13 0-3.84.8t-2.92 2.41q-1.22 1.62-1.86 4.11-.65 2.49-.65 5.87 0 3.42.55 5.8.55 2.37 1.58 3.87 1.02 1.5 2.51 2.17 1.48.66 3.3.66 2.93 0 4.98-1.21 2.05-1.22 3.88-3.46m0-44.92h9.38v56.47h-5.74q-1.86 0-2.35-1.71l-.8-3.76q-2.36 2.7-5.41 4.37-3.06 1.67-7.13 1.67-3.19 0-5.85-1.33t-4.58-3.86q-1.92-2.52-2.96-6.25-1.05-3.72-1.05-8.51 0-4.33 1.18-8.06 1.18-3.72 3.38-6.46 2.2-2.73 5.28-4.27t6.92-1.54q3.27 0 5.58 1.03 2.32 1.02 4.15 2.77z"/></svg>